PathFileType	4	(X/Y/Z)	C:/Users/beibeiliu/ov580/test_trc/User3\sequence.23_training_dense_right.trc
DataRate	CameraRate	NumFrames	NumMarkers	Units	OrigDataRate	OrigDataStartFrame	OrigNumFrames
120	120	10	19	mm	120	257	293
Frame#	Time	ThumbCMC			ThumbMCP			ThumbIP			ThumbTip			IndexMCP			IndexPIP			IndexTip			MiddleMCP			MiddlePIP			MiddleTip			RingMCP			RingPIP			RingTip			PinkyMCP			PinkyPIP			PinkyTip			BackHand1			BackHand2			BackHand3	
		X0	Y0	Z0	X1	Y1	Z1	X2	Y2	Z2	X3	Y3	Z3	X4	Y4	Z4	X5	Y5	Z5	X6	Y6	Z6	X7	Y7	Z7	X8	Y8	Z8	X9	Y9	Z9	X10	Y10	Z10	X11	Y11	Z11	X12	Y12	Z12	X13	Y13	Z13	X14	Y14	Z14	X15	Y15	Z15	X16	Y16	Z16	X17	Y17	Z17	X18	Y18	Z18	
256	2.13333	173.362	15.7567	23.5152	150.369	25.7614	-2.54086	119.862	19.0525	-12.3097	100.884	-1.95598	-1.15706	125.475	-6.21202	-36.797	103.799	-3.58657	-55.1933	80.4715	-2.17563	-71.2286	112.864	-25.5113	-36.4319	91.1155	-24.8718	-51.9534	66.8684	-20.9649	-68.179	110.573	-38.8369	-19.0655	87.7165	-40.9888	-39.3588	67.5369	-37.5942	-51.7281	111.048	-52.7357	0.755748	95.275	-53.6246	-16.9267	79.2015	-53.1693	-31.2101	149.674	-44.9511	11.8236	172.818	-46.0476	34.4932	173.423	-16.3396	8.23041	
257	2.14167	177.161	13.5881	18.9379	158.501	25.6707	-3.52461	130.941	17.1936	-16.7647	114.487	0.581972	-8.52225	136.34	-7.2813	-43.5505	121.477	-3.55878	-62.6882	100.986	-3.20008	-80.1193	127.135	-27.3562	-40.6376	106.166	-25.7994	-60.7115	83.888	-20.6288	-83.431	120.96	-35.9668	-31.9147	102.21	-41.3056	-45.2835	83.886	-38.1977	-63.8021	119.57	-51.506	-10.3454	105.826	-50.4236	-27.7627	92.0757	-53.8547	-40.9151	160.803	-42.9627	7.42321	178.393	-45.8193	29.102	183.049	-20.5389	9.03549	
258	2.15	185.883	15.3388	19.7526	167.475	24.1183	-5.3622	140.886	18.7074	-22.1074	123.176	-3.06031	-16.4387	151.532	-5.74391	-51.5872	133.235	-7.74724	-71.9961	119.781	-6.22429	-90.1626	142.164	-25.8532	-51.2783	124.527	-25.8291	-69.8833	103.212	-25.0543	-94.6483	134.467	-37.9562	-38.0166	117.278	-41.4878	-56.7946	101.91	-39.8008	-75.9501	129.982	-51.5852	-16.2013	118.929	-53.3574	-33.5142	104.02	-55.7529	-54.797	166.239	-45.6853	2.63467	183.382	-48.5579	27.6681	190.351	-20.0504	8.03674	
259	2.15833	189.139	12.3042	18.9436	173.971	24.8385	-12.9965	149.568	14.7522	-28.8355	129.952	-7.28288	-24.3302	165.775	-11.0568	-54.0984	150.855	-10.5333	-79.2302	139.464	-11.1599	-96.1525	154.72	-31.7858	-55.3441	141.671	-28.6684	-82.4057	123.728	-29.1524	-106.537	145.193	-44.9205	-45.8911	134.681	-44.7567	-67.2004	117.955	-44.2713	-89.5339	142.142	-52.0724	-20.9134	131.009	-58.598	-44.0522	122.331	-56.9611	-65.9352	177.591	-47.8274	-0.0818941	186.014	-52.037	26.2489	198.965	-20.8666	4.09258	
260	2.16667	193.45	10.1642	15.3563	179.193	18.7592	-14.1399	158.026	8.55757	-33.7094	139.834	-11.1281	-31.8699	179.937	-12.1016	-61.4381	169.175	-12.2516	-84.3708	159.736	-14.2211	-108.011	168.707	-35.761	-63.8047	160.709	-31.322	-88.0451	146.67	-36.096	-112.17	163.37	-45.0176	-49.7437	152.587	-48.669	-70.739	141.42	-47.0902	-96.3762	154.694	-60.1544	-31.1783	147.672	-61.6683	-54.5261	142.528	-63.5466	-72.9946	184.639	-53.0047	-4.98672	192.124	-54.1044	27.3417	205.966	-20.2544	5.7337	
261	2.175	195.475	8.92693	14.5441	183.751	17.2491	-15.2595	164.59	4.40596	-40.6277	147.202	-21.3409	-40.3392	191.521	-20.0995	-63.1207	185.298	-21.0762	-85.1812	178.182	-21.4891	-112.052	185.975	-38.5626	-62.5593	179.259	-38.9224	-90.1887	169.495	-39.9479	-119.261	176.976	-50.1285	-54.9107	171.369	-53.2249	-79.1662	161.901	-55.385	-104.185	168.403	-65.5249	-36.4542	164.64	-68.2485	-56.2677	160.74	-71.075	-78.0559	192.924	-54.8462	-2.28663	199.459	-54.2739	25.6543	211.002	-25.8558	2.12658	
262	2.18333	196.43	2.55044	13.7839	186.621	9.9654	-20.9276	171.328	-8.81741	-43.8522	160.357	-32.3292	-38.5882	204.144	-22.9172	-62.3083	202.16	-21.6486	-86.4985	195.538	-28.3078	-111.452	200.89	-42.1838	-67.2169	194.136	-46.4314	-92.2958	189.443	-46.6272	-124.416	191.309	-57.5539	-57.8583	187.369	-62.1887	-78.3118	182.043	-62.5339	-107.971	181.055	-69.3136	-34.4791	181.34	-75.5112	-58.8079	181.822	-74.9155	-83.7816	204.025	-58.5993	-5.11797	207.348	-54.4427	24.4805	215.928	-25.9031	5.09323	
263	2.19167	197.229	-0.886558	9.47907	186.483	6.96186	-19.8129	175.91	-10.9529	-46.6202	167.334	-39.8197	-44.2529	213.145	-26.5534	-64.5794	210.635	-30.7897	-86.713	209.379	-35.6096	-111.528	211.494	-49.4624	-65.8528	209.814	-51.8324	-94.6467	205.734	-54.1327	-122.144	204.85	-62.4849	-55.0281	203.715	-65.3811	-81.5269	200.536	-71.9942	-107.908	195.508	-76.0847	-38.0715	197.605	-79.4899	-58.6671	198.401	-83.1211	-79.7069	212.698	-63.3511	-1.01149	216.423	-60.3583	25.5293	221.918	-29.1205	3.39134	
264	2.2	194.688	-7.44012	7.7144	186.694	-1.67859	-22.2646	181.066	-24.1503	-48.3451	175.719	-50.0184	-47.6034	218.848	-29.676	-63.3867	219.088	-31.5161	-88.4553	218.813	-37.7475	-108.923	221.303	-52.4489	-62.7684	220.492	-55.0751	-89.8402	219.496	-56.5972	-122.648	218.101	-66.4418	-54.8423	218.992	-74.0423	-78.216	217.298	-78.8486	-103.407	209.677	-83.0112	-35.8179	211.514	-85.5699	-58.8089	216.108	-87.5637	-79.1592	223.145	-62.6165	-0.970237	224.016	-59.7944	27.5446	221.368	-28.4573	7.30512	
265	2.20833	188.565	-11.7826	11.4621	182.45	-9.36733	-20.6768	182.133	-32.2844	-48.9917	180.931	-56.6532	-46.2838	220.043	-35.4686	-63.3554	220.289	-36.3999	-86.6748	222.462	-46.2864	-108.903	227.219	-56.2174	-63.4308	228.052	-60.8075	-90.1575	227.53	-65.9405	-122.67	227.354	-72.7859	-51.6338	228.562	-74.5814	-77.6677	228.982	-84.7053	-105.457	221.062	-85.1908	-34.5968	224.23	-89.0428	-57.3062	226.282	-91.3136	-81.7155	230.418	-65.8061	1.74552	228.391	-58.852	26.1399	220.784	-29.9462	7.11575	
